<svg aria-hidden="true" style="position: absolute; width: 0; height: 0; overflow: hidden;" version="1.1" xmlns="http://www.w3.org/2000/svg" xmlns:xlink="http://www.w3.org/1999/xlink">
<defs>
<symbol id="shopping-cart" viewBox="0 0 32 32">
<title>shopping-cart</title>
<path  d="M4.8 1.6c-0.424 0-0.831 0.169-1.131 0.469s-0.469 0.707-0.469 1.131c0 0.424 0.169 0.831 0.469 1.131s0.707 0.469 1.131 0.469h1.952l0.488 1.955c0.005 0.023 0.010 0.045 0.016 0.067l2.173 8.688-1.429 1.427c-2.016 2.016-0.589 5.462 2.262 5.462h13.737c0.424 0 0.831-0.169 1.131-0.469s0.469-0.707 0.469-1.131-0.169-0.831-0.469-1.131c-0.3-0.3-0.707-0.469-1.131-0.469h-13.738l1.6-1.6h10.537c0.297-0 0.588-0.083 0.841-0.239s0.457-0.38 0.59-0.646l4.8-9.6c0.122-0.244 0.18-0.515 0.167-0.787s-0.094-0.537-0.237-0.769c-0.143-0.232-0.343-0.423-0.581-0.556s-0.506-0.203-0.779-0.203h-17.152l-0.496-1.989c-0.087-0.346-0.286-0.653-0.568-0.873s-0.628-0.339-0.984-0.339h-3.2zM25.6 26.4c0 0.637-0.253 1.247-0.703 1.697s-1.060 0.703-1.697 0.703c-0.636 0-1.247-0.253-1.697-0.703s-0.703-1.060-0.703-1.697c0-0.636 0.253-1.247 0.703-1.697s1.060-0.703 1.697-0.703c0.637 0 1.247 0.253 1.697 0.703s0.703 1.061 0.703 1.697zM10.4 28.8c0.636 0 1.247-0.253 1.697-0.703s0.703-1.060 0.703-1.697c0-0.636-0.253-1.247-0.703-1.697s-1.061-0.703-1.697-0.703-1.247 0.253-1.697 0.703c-0.45 0.45-0.703 1.061-0.703 1.697s0.253 1.247 0.703 1.697 1.061 0.703 1.697 0.703z"></path>
</symbol>
<symbol id="cabbage" viewBox="0 0 32 32">
<title>cabbage</title>
<path  d="M17.488 4.624c-0.463-0.704-1.086-1.289-1.817-1.707-2.011-1.153-4.601-0.951-6.992 0.388-4.439 2.487-7.345 7.161-7.345 12.695 0 7.387 5.347 13.351 12.329 14.48 0.763 0.123 1.543 0.187 2.337 0.187 1.938 0.007 3.857-0.372 5.647-1.113s3.415-1.832 4.779-3.207 2.443-3.008 3.17-4.804c0.728-1.796 1.092-3.718 1.070-5.655-0.031-2.576-1.064-5.737-2.697-8.264-1.627-2.517-4.128-4.811-7.236-4.781-1.517 0.003-2.553 0.837-3.245 1.784v-0.001zM26.361 10.151c-0.557-0.090-1.123-0.104-1.684-0.044l-1.547-2.6-2.291 1.36 1.189 2c-0.498 0.234-0.973 0.513-1.42 0.833-0.008-0.026-0.016-0.052-0.024-0.077-0.356-1.080-1.044-1.967-1.961-2.848l0.005-0.027c0.092-0.431 0.239-0.987 0.459-1.527 0.497-1.221 1.075-1.716 1.653-1.716h0.015c1.721-0.019 3.515 1.303 4.975 3.561 0.227 0.351 0.437 0.712 0.632 1.083l-0.001 0.001zM18.147 14.147c-0.44 0.011-0.892 0.060-1.333 0.156-0.36-0.602-0.842-1.123-1.416-1.527-1.053-0.74-2.496-1.107-4.056-0.524-0.143-0.082-0.287-0.163-0.432-0.241l4.311-4.225-1.867-1.904-5.113 5.012c-1.080-0.313-2.089-0.425-2.996-0.3 1.043-2.094 2.696-3.824 4.74-4.963 1.819-1.019 3.383-0.963 4.361-0.401 0.933 0.535 1.708 1.748 1.513 3.916l-0.060 0.671 0.504 0.447c1.096 0.969 1.552 1.596 1.749 2.195 0.139 0.42 0.184 0.928 0.095 1.689zM14.4 15.487c-1.139 0.953-1.903 2.291-2.347 3.736l-3.965-4.353-1.972 1.797 5.451 5.984c-0.007 1.589 0.197 3.216 0.493 4.687-2.36-0.81-4.407-2.34-5.852-4.373s-2.218-4.469-2.208-6.964c0-1.387 0.385-2.143 0.839-2.473 0.428-0.315 1.368-0.572 3.293 0.139 0.696 0.257 1.501 0.652 2.423 1.225l0.669 0.416 0.688-0.387c0.831-0.467 1.465-0.301 1.952 0.040 0.213 0.149 0.396 0.336 0.536 0.527zM16.753 27.976l9.723-10.716-1.975-1.792-3.909 4.308 0.009-1.352-2.667-0.019-0.031 4.333-3.311 3.649c-0.251-1.361-0.4-2.824-0.352-4.196 0.085-2.34 1.020-4.263 2.403-5.024 0.573-0.316 1.585-0.44 2.385-0.299l1.187 0.207 0.327-1.159c0.171-0.604 0.623-1.251 1.329-1.827 0.717-0.579 1.551-0.996 2.445-1.221 1.068-0.261 1.979-0.125 2.579 0.288 0.524 0.36 1.051 1.096 1.1 2.605v0.024l0.004 0.213c0.013 3.056-1.145 6.001-3.237 8.229s-4.959 3.569-8.009 3.747z"></path>
</symbol>
<symbol id="search" viewBox="0 0 32 32">
<title>search</title>
<path d="M20.667 18.667h-1.053l-0.373-0.36c1.352-1.568 2.095-3.57 2.093-5.64 0-1.714-0.508-3.39-1.46-4.815s-2.306-2.536-3.89-3.192c-1.584-0.656-3.326-0.828-5.007-0.493s-3.225 1.16-4.437 2.372c-1.212 1.212-2.037 2.756-2.372 4.437s-0.163 3.424 0.493 5.007c0.656 1.584 1.767 2.937 3.192 3.89s3.101 1.46 4.815 1.46c2.147 0 4.12-0.787 5.64-2.093l0.36 0.373v1.053l6.667 6.653 1.987-1.987-6.653-6.667zM12.667 18.667c-3.32 0-6-2.68-6-6s2.68-6 6-6c3.32 0 6 2.68 6 6s-2.68 6-6 6z"></path>
</symbol>
<symbol id="close-cross" viewBox="0 0 32 32">
<title>close-cross</title>
<path d="M25 9.093l-2.093-2.093-6.907 6.907-6.907-6.907-2.093 2.093 6.907 6.907-6.907 6.907 2.093 2.093 6.907-6.907 6.907 6.907 2.093-2.093-6.907-6.907 6.907-6.907z"></path>
</symbol>
<symbol id="leaf" viewBox="0 0 32 32">
<title>leaf</title>
<path  d="M22.667 10.667c-12 2.667-14.8 10.893-17.573 17.787l2.52 0.88 1.267-3.067c0.64 0.227 1.307 0.4 1.787 0.4 14.667 0 18.667-22.667 18.667-22.667-1.333 2.667-10.667 3-17.333 4.333s-9.333 7-9.333 9.667c0 2.667 2.333 5 2.333 5 4.333-12.333 17.667-12.333 17.667-12.333z"></path>
</symbol>
<symbol id="check" viewBox="0 0 32 32">
<title>check</title>
<path  stroke-linejoin="round" stroke-linecap="round" stroke-miterlimit="4" stroke-width="3.5556" d="M26.667 8l-14.667 14.667-6.667-6.667"></path>
</symbol>
<symbol id="icon-caret-small-left" viewBox="0 0 32 32">
<title>arrow-left</title>
<path  stroke-linejoin="round" stroke-linecap="round" stroke-miterlimit="4" stroke-width="2" d="M18.667 21.333l-5.333-5.333 5.333-5.333"></path>
</symbol>
<symbol id="icon-Frame-52" viewBox="0 0 32 32">
<title>Facebook</title>
<path  d="M19.52 4.64c0.24 0 0.48 0 0.96 0v3.6c-0.24 0-0.72 0-1.2 0s-0.96 0-1.2 0.24c-0.24 0.24-0.24 0.48-0.24 1.040 0 0.48 0 0.8 0 1.28h2.64v3.040h-2.64v13.2h-4.080v-13.28h-2.16v-3.040h2.16v-1.040c0-1.76 0.24-3.040 0.72-3.6 0.72-1.040 2.16-1.52 4.32-1.52 0.24 0.080 0.48 0.080 0.72 0.080z"></path>
</symbol>
<symbol id="icon-Frame-60" viewBox="0 0 32 32">
<title>YouTube</title>
<path  opacity="0.8" d="M24.24 6c-1.36-0.080-4.16-0.16-8.4-0.16h-0.56c-4.080 0-6.8 0.080-8.16 0.24-1.84 0.16-3.12 0.64-3.84 1.28-0.64 0.56-1.12 1.6-1.28 2.96-0.080 0.88-0.16 2.72-0.16 5.52v0.4c0 2.64 0.080 4.48 0.24 5.36 0.24 1.28 0.64 2.24 1.44 2.8 0.8 0.64 2.16 1.040 4.080 1.2 1.36 0.080 4.16 0.16 8.4 0.16h0.56c4.080 0 6.8-0.080 8.16-0.24 1.84-0.16 3.12-0.64 3.84-1.28 0.64-0.56 1.12-1.6 1.28-2.96 0.080-0.88 0.16-2.72 0.16-5.52v-0.4c0-2.64-0.080-4.48-0.24-5.36-0.24-1.28-0.64-2.24-1.44-2.8-0.8-0.64-2.16-1.040-4.080-1.2zM21.12 15.84l-8.8 5.28v-10.56l8.8 5.28z"></path>
</symbol>
<symbol id="icon-instagram" viewBox="0 0 32 32">
<title>instagram</title>
<path  opacity="0.8" d="M28.718 10.756c-0.016-1.074-0.215-2.14-0.596-3.145-0.667-1.716-2.024-3.073-3.743-3.737-0.994-0.373-2.044-0.573-3.108-0.596-1.368-0.061-1.801-0.078-5.273-0.078s-3.916 0-5.274 0.078c-1.062 0.023-2.113 0.223-3.106 0.596-1.719 0.664-3.078 2.021-3.743 3.737-0.374 0.992-0.576 2.041-0.596 3.101-0.061 1.367-0.080 1.8-0.080 5.265s0 3.909 0.080 5.265c0.021 1.062 0.222 2.109 0.596 3.104 0.667 1.714 2.024 3.071 3.744 3.735 0.989 0.386 2.040 0.605 3.106 0.639 1.369 0.061 1.803 0.080 5.274 0.080s3.916 0 5.274-0.080c1.062-0.021 2.112-0.221 3.108-0.595 1.719-0.666 3.076-2.022 3.743-3.737 0.374-0.994 0.574-2.041 0.596-3.104 0.061-1.365 0.080-1.798 0.080-5.265-0.003-3.466-0.003-3.906-0.082-5.264zM15.99 22.531c-3.631 0-6.572-2.936-6.572-6.561s2.941-6.561 6.572-6.561c3.628 0 6.572 2.936 6.572 6.561s-2.944 6.561-6.572 6.561zM22.824 10.696c-0.849 0-1.532-0.684-1.532-1.53s0.684-1.53 1.532-1.53c0.846 0 1.531 0.684 1.531 1.53s-0.685 1.53-1.531 1.53z"></path>
<path opacity="0.8" d="M15.992 19.976c2.211 0 4.004-1.793 4.004-4.004s-1.793-4.004-4.004-4.004c-2.211 0-4.004 1.793-4.004 4.004s1.793 4.004 4.004 4.004z"></path>
</symbol>
<symbol id="icon-Food-Boutique" viewBox="0 0 227 32">
<title>Food-Boutique-Text-Logo</title>
<path d="M0 22.964c1.711-0.209 2.653-0.977 2.653-2.339v-14.208c0-1.361-0.943-2.164-2.653-2.339v-1.396h17.734c0.314 0 0.454 0.105 0.489 0.349 0.105 1.047 0.175 2.095 0.733 4.643h-0.873c-1.222-2.129-2.269-3.247-4.329-3.247h-2.967c-1.571 0-2.234 0.873-2.234 2.269v3.665c0 1.396 0.663 2.164 2.234 2.164h1.396c2.828 0 3.351-0.663 3.631-2.234h0.768v6.214h-0.768c-0.279-1.466-0.803-2.199-3.631-2.199h-1.396c-1.571 0-2.234 0.768-2.234 2.164v4.154c0 1.361 0.943 2.129 3.002 2.339v1.396h-11.555v-1.396z"></path>
<path d="M27.766 24.57c-4.294 0-8.657-2.583-8.657-8.239 0-5.62 4.364-8.029 8.553-8.029 4.329 0 8.657 2.583 8.657 8.239 0 5.62-4.329 8.029-8.553 8.029zM24.694 14.796c0 4.329 1.431 8.169 3.665 8.169 1.361 0 2.374-1.361 2.374-4.957 0-4.294-1.361-8.134-3.665-8.134-1.396 0-2.374 1.396-2.374 4.922z"></path>
<path d="M46.534 24.57c-4.294 0-8.657-2.583-8.657-8.239 0-5.62 4.364-8.029 8.553-8.029 4.329 0 8.657 2.583 8.657 8.239 0 5.62-4.329 8.029-8.553 8.029zM43.462 14.796c0 4.329 1.431 8.169 3.665 8.169 1.361 0 2.374-1.361 2.374-4.957 0-4.294-1.361-8.134-3.665-8.134-1.396 0-2.374 1.396-2.374 4.922z"></path>
<path d="M63.312 24.57c-3.281 0-6.668-2.688-6.668-7.855 0-5.551 3.805-8.413 7.505-8.413 3.84 0 4.852 3.002 4.852-0.524v-2.095c0-1.641-0.908-1.92-2.199-1.815v-1.361l5.69-0.943c1.187-0.175 1.745 0.349 1.745 1.396v17.839c0 1.152 0.454 1.92 1.466 1.501v0.768c-0.489 1.187-1.745 1.501-2.828 1.501-1.187 0-2.688-0.384-3.107-1.431-0.279-0.663-0.593-1.012-1.117-1.012-0.698 0-2.095 2.444-5.341 2.444zM62.264 14.9c0 3.456 1.536 6.842 3.77 6.842 1.361 0 2.967-0.977 2.967-3.91v-1.641c0-4.538-2.129-6.319-3.875-6.319-1.78 0-2.863 2.199-2.863 5.027z"></path>
<path d="M83.032 22.964c1.711-0.209 2.653-0.977 2.653-2.339v-14.173c0-1.396-0.943-2.199-2.653-2.374v-1.396h10.787c6.842 0 10.228 1.641 10.228 5.167 0 1.99-1.152 3.945-5.132 4.573 4.468 0.628 6.388 2.723 6.388 5.69 0 4.049-3.596 6.249-8.483 6.249-2.793 0-8.727-0.873-13.789 0v-1.396zM91.585 21.149c0 0.908 0.559 1.327 1.571 1.327h1.222c2.653 0 4.643-1.012 4.643-4.399 0-3.281-2.025-4.713-5.865-4.713-0.908 0-1.571 0.698-1.571 2.095v5.69zM91.585 9.594c0 1.396 0.663 2.095 2.234 2.095h0.908c2.409 0 3.037-1.885 3.037-3.491 0-2.444-1.327-3.805-3.596-3.805h-0.349c-1.571 0-2.234 0.733-2.234 2.129v3.072z"></path>
<path d="M115.537 24.57c-4.294 0-8.657-2.583-8.657-8.239 0-5.62 4.364-8.029 8.553-8.029 4.329 0 8.657 2.583 8.657 8.239 0 5.62-4.329 8.029-8.553 8.029zM112.465 14.796c0 4.329 1.431 8.169 3.665 8.169 1.361 0 2.374-1.361 2.374-4.957 0-4.294-1.361-8.134-3.665-8.134-1.396 0-2.374 1.396-2.374 4.922z"></path>
<path d="M131.677 24.57c-2.444 0-5.097-1.012-5.097-6.493v-5.551c0-1.606-0.908-1.885-2.199-1.85v-1.361l5.69-0.943c1.187-0.175 1.745 0.349 1.745 1.396v7.471c0 2.444 1.012 4.189 2.897 4.189 1.92 0 2.897-1.745 2.897-4.189v-4.713c0-1.606-0.908-1.885-2.199-1.85v-1.361l5.655-0.943c1.222-0.175 1.78 0.349 1.78 1.396v11.031c0 1.152 0.454 1.92 1.466 1.501v0.768c-0.489 1.187-1.745 1.501-2.932 1.501-2.513 0-3.212-1.571-3.386-2.339-0.105-0.489-0.384-0.733-0.628-0.733s-0.419 0.209-0.593 0.454c-0.977 1.327-2.339 2.618-5.097 2.618z"></path>
<path d="M152.495 24.535c-3.212 0-5.167-1.78-5.167-5.167v-7.645c0-1.222-0.279-1.466-1.082-1.466h-1.571v-1.117c2.897-0.663 4.294-1.99 5.481-3.91 0.279-0.454 0.524-0.593 0.977-0.593h0.628c0.524 0 0.838 0.314 0.838 0.838l-0.035 2.164c0 0.768 0.384 0.977 2.164 0.977h2.269v1.85l-2.269-0.14c-1.78-0.105-2.164 0.209-2.164 1.466v7.401c0 1.92 0.209 3.212 1.92 3.212 0.454 0 1.152-0.070 1.815-0.559 0.454 0.559 0.628 1.047 0.175 1.466-0.803 0.698-2.234 1.222-3.98 1.222z"></path>
<path d="M158.406 22.999c1.606-0.105 2.199-0.628 2.199-2.513v-7.994c0-1.641-0.908-1.92-2.164-1.815v-1.361l5.655-0.943c1.187-0.175 1.745 0.349 1.745 1.396v10.717c0 1.885 0.593 2.409 2.164 2.513v1.361h-9.6v-1.361zM159.767 3.974c0-1.676 1.396-2.967 3.037-2.967 1.606 0 2.967 1.292 2.967 2.967s-1.361 2.967-2.967 2.967c-1.641 0-3.037-1.292-3.037-2.967z"></path>
<path d="M178.431 29.667c1.99-0.14 2.583-0.663 2.583-2.409v-3.735c0-0.628-0.314-0.838-0.628-0.838-0.175 0-0.349 0.070-0.489 0.209-0.698 0.698-2.199 1.676-4.399 1.676-3.596 0-6.912-2.653-6.912-7.785 0-5.585 3.875-8.483 7.889-8.483 3.491 0 4.957 2.129 6.249 2.129 1.222 0 1.711-2.095 2.688-2.095 0.628 0 0.838 0.349 0.838 0.838v18.083c0 1.745 0.593 2.269 2.164 2.409v1.327h-9.984v-1.327zM174.207 14.865c0 3.456 1.466 6.877 3.91 6.877 1.327 0 2.863-0.977 2.897-4.887-0.035-5.236-2.199-6.982-3.945-6.982-1.885 0-2.863 2.199-2.863 4.992z"></path>
<path d="M195.191 24.57c-2.444 0-5.097-1.012-5.097-6.493v-5.551c0-1.606-0.908-1.885-2.199-1.85v-1.361l5.69-0.943c1.187-0.175 1.745 0.349 1.745 1.396v7.471c0 2.444 1.012 4.189 2.897 4.189 1.92 0 2.897-1.745 2.897-4.189v-4.713c0-1.606-0.908-1.885-2.199-1.85v-1.361l5.655-0.943c1.222-0.175 1.78 0.349 1.78 1.396v11.031c0 1.152 0.454 1.92 1.466 1.501v0.768c-0.489 1.187-1.745 1.501-2.932 1.501-2.513 0-3.212-1.571-3.386-2.339-0.105-0.489-0.384-0.733-0.628-0.733s-0.419 0.209-0.593 0.454c-0.977 1.327-2.339 2.618-5.097 2.618z"></path>
<path d="M217.917 24.57c-4.364 0-8.692-2.513-8.692-7.994 0-5.725 4.678-8.273 9.007-8.273 3.7 0 6.703 1.85 6.703 4.922 0 3.142-3.037 3.316-6.109 3.561l-2.723 0.209c-0.593 0.035-0.908 0.314-0.908 1.117 0 2.583 2.793 3.735 5.097 3.735 1.222 0 2.897-0.349 4.154-1.78l1.047 0.943c-0.663 1.361-3.491 3.561-7.575 3.561zM214.95 14.132c0 1.012 0.244 1.536 1.152 1.501l1.257-0.14c2.409-0.244 2.897-0.873 2.897-2.234 0-1.676-0.698-3.351-2.513-3.351-2.269 0-2.793 2.548-2.793 4.224z"></path>
</symbol>


<symbol id="organic food" width="100" height="100" viewBox="0 0 100 100" fill="none">
<title>Organic food logo</title>
<circle cx="50" cy="50" r="50" fill="#FDC152"/>
<path d="M78.6682 53.6929C78.9928 51.1536 80.9513 49.8394 83.4748 50.162C85.9982 50.4846 87.5631 52.2493 87.2384 54.7886C86.9138 57.328 84.9553 58.6422 82.4319 58.3196C79.9084 57.997 78.3435 56.2323 78.6682 53.6929ZM80.0331 53.8674C79.8302 55.4545 80.9785 56.4401 82.6449 56.6531C84.3272 56.8682 85.6706 56.2012 85.8735 54.6141C86.0765 53.027 84.944 52.0435 83.2617 51.8284C81.5953 51.6154 80.236 52.2804 80.0331 53.8674Z" fill="#010101"/>
<path d="M84.8019 64.112C84.7058 64.3835 84.6213 64.5742 84.5111 64.7898L83.0178 64.2613L83.0285 64.2311C83.8241 62.7985 83.2309 61.2137 81.5868 60.6318L77.6502 59.2385L78.2107 57.6547L85.9182 60.3827L85.3576 61.9665L83.9096 61.454L83.899 61.4841C84.7201 62.233 85.1596 63.1014 84.8019 64.112Z" fill="#010101"/>
<path d="M80.6856 71.3104L79.7995 72.7376L73.3292 68.7203C71.331 67.4796 71.1987 65.7212 72.4224 63.7502C73.6631 61.7521 75.3934 61.3009 76.6552 61.8772L75.7606 63.3181C75.0645 63.0742 74.2985 63.2766 73.598 64.4048C72.8553 65.601 73.0192 66.5503 74.2698 67.3267L75.1125 67.85L75.1294 67.8228C74.8408 67.1351 74.7209 66.1755 75.4045 65.0745C76.4848 63.3346 78.5048 62.7808 80.6933 64.1396C82.8954 65.5069 83.2813 67.5545 82.201 69.2944C81.5174 70.3955 80.6042 70.7136 79.8869 70.7768L79.8701 70.804L80.6856 71.3104ZM76.4047 66.0722C75.6873 67.2276 76.0181 68.3935 77.4861 69.305C78.9542 70.2165 80.1458 69.9959 80.8632 68.8405C81.6397 67.5899 81.0984 66.3687 79.8071 65.5669C78.5294 64.7736 77.1812 64.8216 76.4047 66.0722Z" fill="#010101"/>
<path d="M73.3088 76.3305C73.7166 76.7596 74.2804 76.8418 75.0922 76.0703C76.0664 75.1444 76.1394 74.5012 75.4699 73.6806L76.6529 72.5563C77.6751 73.748 77.7931 75.3355 76.0071 77.0329C74.6965 78.2784 73.2484 78.7056 71.7493 77.1283L69.0709 74.31C68.6741 73.8925 68.3719 73.7603 67.9405 74.2586L67.3894 73.6788C67.5685 73.3098 67.7436 73.0993 67.9756 72.8788C68.625 72.2616 69.147 72.2069 69.8141 72.6766L69.8373 72.6546C69.7124 71.78 70.0434 70.7811 70.9596 69.9104C72.1658 68.764 73.5694 68.7545 74.5173 69.7519C75.7518 71.0508 75.175 72.3716 73.966 74.0724C73.2152 75.1171 72.7687 75.7622 73.3088 76.3305ZM71.6078 71.1265C70.5987 72.0854 70.3768 73.2455 71.2917 74.2081L72.1404 75.1011C72.2053 74.7746 72.5486 74.1835 73.0066 73.5274C73.8062 72.3481 73.9714 71.6393 73.3982 71.0362C72.8801 70.4911 72.2688 70.4982 71.6078 71.1265Z" fill="#010101"/>
<path d="M67.4448 83.1918C66.1111 83.9211 64.6361 83.7247 63.7379 82.0822L61.0281 77.1267L62.5162 76.313L64.9957 80.8474C65.5253 81.816 66.2702 82.2111 67.281 81.6584C68.4181 81.0366 68.7719 79.9495 68.1885 78.8826L65.8011 74.5167L67.2751 73.7107L71.1978 80.8842L69.7238 81.6903L69.2171 80.7637L69.1891 80.7791C69.1171 81.5479 68.6801 82.5163 67.4448 83.1918Z" fill="#010101"/>
<path d="M62.2876 86.6196C62.7289 86.4764 63.2842 86.6326 63.462 87.1805C63.6399 87.7283 63.2771 88.1656 62.8358 88.3089C62.364 88.462 61.8288 88.3161 61.651 87.7682C61.4732 87.2203 61.8158 86.7727 62.2876 86.6196ZM62.6542 85.054L61.0562 85.5726L58.5324 77.7959L60.1303 77.2773L62.6542 85.054Z" fill="#010101"/>
<path d="M52.5935 84.1731C52.7625 84.9902 53.4141 85.9231 54.8424 85.7405C56.4771 85.5315 56.9969 84.0456 56.8021 82.522C56.6073 80.9984 55.7463 79.689 54.0957 79.9001C52.6674 80.0827 52.2694 81.1336 52.3216 82.0464L50.6552 82.2594C50.5427 80.3704 51.8104 78.805 53.9212 78.5352C56.3495 78.2247 58.1439 79.7696 58.4685 82.309C58.7932 84.8483 57.4452 86.795 55.0328 87.1034C52.922 87.3732 51.3688 86.2008 50.9271 84.3861L52.5935 84.1731Z" fill="#010101"/>
<path d="M36.3831 86.6594C37.4074 87.0293 37.8379 87.0463 38.1143 86.1605L38.3813 85.3051L36.9455 84.8571L37.3555 83.5436L38.7912 83.9916L40.8169 77.5004L42.4359 78.0056L40.4102 84.4969L41.5251 84.8448L41.1152 86.1583L40.0003 85.8104L39.6904 86.8032C39.1757 88.4527 38.292 88.8138 37.009 88.4135C36.6119 88.2895 36.2749 88.1341 35.9732 87.9729L36.3831 86.6594Z" fill="#010101"/>
<path d="M36.2615 75.218C38.5031 76.4545 39.0042 78.7592 37.7754 80.9868C36.5466 83.2143 34.3298 84.0198 32.0883 82.7832C29.8467 81.5467 29.3456 79.242 30.5744 77.0144C31.8032 74.7869 34.0199 73.9814 36.2615 75.218ZM35.5969 76.4228C34.1959 75.65 32.8569 76.3549 32.0454 77.8259C31.2262 79.3109 31.3519 80.8056 32.7529 81.5784C34.1539 82.3512 35.4852 81.6603 36.3044 80.1753C37.1158 78.7043 36.9979 77.1956 35.5969 76.4228Z" fill="#010101"/>
<path d="M30.3165 70.8576C32.1722 72.6212 32.0737 74.9777 30.3211 76.8217C28.5686 78.6658 26.2201 78.884 24.3645 77.1204C22.5088 75.3568 22.6073 73.0003 24.3599 71.1562C26.1124 69.3122 28.4609 69.094 30.3165 70.8576ZM29.3686 71.855C28.2088 70.7528 26.735 71.0958 25.5776 72.3136C24.4093 73.543 24.1526 75.0207 25.3124 76.123C26.4722 77.2252 27.935 76.8937 29.1033 75.6644C30.2607 74.4466 30.5284 72.9572 29.3686 71.855Z" fill="#010101"/>
<path d="M14.6384 69.4648L13.7733 68.0247L23.58 62.1337L24.4451 63.5738L23.6359 64.0599L23.6523 64.0874C24.3548 64.1693 25.3017 64.5338 25.9526 65.6173C27.0319 67.414 26.4321 69.5848 24.1279 70.969C21.8237 72.3532 19.6255 71.8632 18.5462 70.0664C17.8953 68.9829 17.9908 67.9923 18.3033 67.3006L18.2868 67.2732L14.6384 69.4648ZM24.6247 66.079C23.9162 64.8994 22.5057 64.7575 20.9558 65.6885C19.3923 66.6278 18.8689 67.9314 19.5774 69.111C20.3354 70.3728 21.8912 70.3528 23.2628 69.5289C24.6344 68.705 25.3827 67.3408 24.6247 66.079Z" fill="#010101"/>
<path d="M21.4023 51.1726C21.5011 53.7307 19.7863 55.3501 17.2442 55.4482C14.702 55.5464 12.8675 54.0641 12.7687 51.506C12.6699 48.9479 14.3847 47.3285 16.9268 47.2304C19.4689 47.1322 21.3035 48.6145 21.4023 51.1726ZM20.0273 51.2257C19.9656 49.6269 18.6704 48.8443 16.9917 48.9091C15.2969 48.9745 14.082 49.8541 14.1437 51.4529C14.2054 53.0517 15.4846 53.8349 17.1793 53.7695C18.8581 53.7047 20.089 52.8245 20.0273 51.2257Z" fill="#010101"/>
<path d="M13.6517 41.7503C13.7024 41.4668 13.7548 41.2649 13.8285 41.0343L15.3878 41.3132L15.3821 41.3447C14.8299 42.8875 15.6727 44.3548 17.3894 44.6619L21.5002 45.3972L21.2044 47.051L13.1561 45.6114L13.4519 43.9576L14.9639 44.2281L14.9695 44.1966C14.0376 43.591 13.4629 42.8056 13.6517 41.7503Z" fill="#010101"/>
<path d="M16.5203 34.0154L17.1632 32.4633L24.1995 35.3776C26.3725 36.2776 26.7885 37.9912 25.9007 40.1347C25.0007 42.3076 23.3665 43.0336 22.0279 42.6696L22.6769 41.1027C23.4033 41.2304 24.1263 40.9064 24.6345 39.6795C25.1733 38.3787 24.8575 37.4686 23.4975 36.9053L22.581 36.5257L22.5688 36.5552C22.9652 37.187 23.2392 38.1144 22.7432 39.3118C21.9596 41.2039 20.0562 42.0781 17.6762 41.0924C15.2815 40.1005 14.5684 38.1427 15.3521 36.2505C15.8481 35.0532 16.6975 34.5911 17.395 34.4124L17.4073 34.3828L16.5203 34.0154ZM21.5944 38.4896C22.1148 37.2331 21.5993 36.1364 20.0028 35.4751C18.4063 34.8139 17.2663 35.2249 16.7459 36.4814C16.1826 37.8414 16.9148 38.9586 18.3191 39.5403C19.7086 40.1158 21.0311 39.8496 21.5944 38.4896Z" fill="#010101"/>
<path d="M22.9864 27.8513C22.5154 27.4926 21.9458 27.5013 21.2673 28.3924C20.453 29.4616 20.4835 30.1083 21.2752 30.8117L20.2865 32.1101C19.0875 31.0965 18.718 29.5482 20.2107 27.5878C21.306 26.1494 22.6676 25.4969 24.3988 26.8151L27.4921 29.1706C27.9504 29.5195 28.2698 29.6018 28.6163 29.0412L29.2528 29.5258C29.1347 29.9186 28.9954 30.1543 28.8016 30.4089C28.2587 31.1218 27.7521 31.2589 27.0187 30.9016L26.9993 30.927C27.262 31.7705 27.0944 32.8094 26.3287 33.815C25.3206 35.1389 23.9364 35.372 22.8417 34.5384C21.416 33.4528 21.7749 32.057 22.6974 30.1852C23.2722 29.0342 23.6102 28.3262 22.9864 27.8513ZM25.495 32.7177C26.3383 31.6102 26.3725 30.4296 25.316 29.6251L24.3358 28.8787C24.3238 29.2115 24.0791 29.8497 23.7314 30.5704C23.13 31.862 23.0799 32.5881 23.7419 33.0921C24.3401 33.5477 24.9425 33.4433 25.495 32.7177Z" fill="#010101"/>
<path d="M27.5649 20.1931C28.7606 19.2547 30.2479 19.2062 31.4036 20.6789L34.8904 25.1221L33.5562 26.1691L30.3657 22.1035C29.6842 21.235 28.8845 20.9676 27.9783 21.6788C26.9587 22.4789 26.7882 23.6093 27.5389 24.5659L30.6109 28.4805L29.2893 29.5176L24.2418 23.0857L25.5634 22.0485L26.2153 22.8793L26.2405 22.8595C26.1852 22.0893 26.4572 21.0624 27.5649 20.1931Z" fill="#010101"/>
<path d="M32.1689 15.9042C31.757 16.1178 31.1835 16.0546 30.9185 15.5432C30.6534 15.0318 30.9397 14.541 31.3516 14.3275C31.792 14.0992 32.3438 14.1556 32.6089 14.667C32.874 15.1783 32.6093 15.676 32.1689 15.9042ZM32.0635 17.5087L33.555 16.7356L37.3176 23.9944L35.8261 24.7675L32.0635 17.5087Z" fill="#010101"/>
<path d="M42.1393 16.7226C41.8391 15.944 41.044 15.13 39.6646 15.5433C38.086 16.0164 37.8158 17.5672 38.2567 19.0386C38.6976 20.5099 39.7608 21.6612 41.3548 21.1835C42.7342 20.7702 42.9552 19.6683 42.7547 18.7763L44.364 18.2941C44.7834 20.1394 43.7882 21.8907 41.7498 22.5016C39.4048 23.2043 37.3823 21.9731 36.6474 19.5208C35.9125 17.0686 36.9246 14.9279 39.2543 14.2298C41.2927 13.619 43.0165 14.5221 43.7486 16.2403L42.1393 16.7226Z" fill="#010101"/>
<path d="M57.6609 11.6233C56.5899 11.4254 56.1625 11.4788 56.0342 12.3979L55.9103 13.2853L57.3999 13.4932L57.2097 14.856L55.7201 14.6481L54.7801 21.3828L53.1004 21.1484L54.0404 14.4137L52.8836 14.2522L53.0738 12.8894L54.2306 13.0509L54.3744 12.0208C54.6132 10.3094 55.4262 9.80901 56.7573 9.9948C57.1693 10.0523 57.5271 10.1507 57.8511 10.2605L57.6609 11.6233Z" fill="#010101"/>
<path d="M59.6757 22.8774C57.2624 22.0232 56.392 19.8312 57.2408 17.4329C58.0896 15.0347 60.1453 13.8783 62.5586 14.7325C64.9718 15.5867 65.8423 17.7787 64.9935 20.177C64.1447 22.5752 62.089 23.7316 59.6757 22.8774ZM60.1348 21.5802C61.6432 22.1141 62.8492 21.2001 63.4098 19.6164C63.9757 18.0176 63.6077 16.5635 62.0994 16.0297C60.5911 15.4958 59.3904 16.3947 58.8245 17.9935C58.264 19.5772 58.6265 21.0464 60.1348 21.5802Z" fill="#010101"/>
<path d="M66.1563 26.1284C64.0377 24.6914 63.7502 22.3504 65.1782 20.245C66.6062 18.1396 68.8875 17.5409 71.0062 18.9779C73.1248 20.4149 73.4123 22.7559 71.9843 24.8613C70.5563 26.9667 68.275 27.5653 66.1563 26.1284ZM66.9287 24.9896C68.2529 25.8877 69.6509 25.3086 70.594 23.9183C71.546 22.5147 71.5579 21.0148 70.2338 20.1167C68.9096 19.2186 67.5205 19.7844 66.5685 21.188C65.6255 22.5784 65.6046 24.0915 66.9287 24.9896Z" fill="#010101"/>
<path d="M82.0232 25.0949L83.1078 26.3779L74.3712 33.7634L73.2866 32.4804L74.0075 31.871L73.9869 31.8465C73.2803 31.8781 72.2873 31.67 71.4713 30.7047C70.1181 29.1041 70.3625 26.8652 72.4153 25.1299C74.4681 23.3945 76.7164 23.5262 78.0695 25.1269C78.8856 26.0922 78.9499 27.0853 78.7523 27.8181L78.7729 27.8425L82.0232 25.0949ZM72.708 30.0364C73.5964 31.0872 75.0114 31.0014 76.3921 29.8342C77.7851 28.6566 78.093 27.286 77.2046 26.2351C76.2543 25.111 74.7218 25.3799 73.4999 26.4129C72.278 27.4458 71.7577 28.9122 72.708 30.0364Z" fill="#010101"/>
<path d="M55 46C46 48 43.9 54.17 41.82 59.34L43.71 60L44.66 57.7C45.14 57.87 45.64 58 46 58C57 58 60 41 60 41C59 43 52 43.25 47 44.25C42 45.25 40 49.5 40 51.5C40 53.5 41.75 55.25 41.75 55.25C45 46 55 46 55 46Z" fill="#010101"/>
</symbol>

<symbol id="discount" width="60" height="60" viewBox="0 0 60 60" fill="none">
<title>Discount</title>
<circle cx="30" cy="30" r="30" fill="#6D8434"/>
<path d="M50.5248 39.1173L50.0883 40.2992L42.0374 37.3327L42.474 36.1508L43.1383 36.3956L43.1466 36.373C42.8648 35.9239 42.6335 35.1992 42.9619 34.3099C43.5065 32.8353 45.0583 32.1666 46.95 32.8636C48.8416 33.5606 49.5869 35.0757 49.0423 36.5504C48.7139 37.4397 48.0894 37.849 47.538 37.9911L47.5297 38.0136L50.5248 39.1173ZM43.8554 34.8694C43.4979 35.8375 44.077 36.7287 45.3494 37.1975C46.633 37.6705 47.6416 37.3643 47.9991 36.3962C48.3816 35.3606 47.6394 34.4605 46.5134 34.0456C45.3874 33.6307 44.2379 33.8337 43.8554 34.8694Z" fill="#FAFAFA"/>
<path d="M47.049 42.2421C47.2548 41.9615 47.6615 41.8128 48.0103 42.0677C48.359 42.3226 48.3302 42.7474 48.1245 43.0281C47.9045 43.3281 47.5146 43.4742 47.1658 43.2193C46.817 42.9644 46.8291 42.5421 47.049 42.2421ZM46.5848 41.13L45.8397 42.1461L40.889 38.5279L41.6341 37.5118L46.5848 41.13Z" fill="#FAFAFA"/>
<path d="M40.928 43.6925C39.8889 44.2059 38.7834 44.7895 37.8507 43.6611C37.1015 42.7546 37.4134 41.5497 38.5623 40.604C40.0909 39.3456 41.3374 39.5164 42.2093 40.4772L41.2643 41.2551C40.7976 40.7845 40.2159 40.5328 39.2153 41.3565C38.539 41.9133 38.527 42.4827 38.7716 42.7787C39.2609 43.3706 39.8643 42.9517 40.6967 42.5462C41.5924 42.1041 42.7338 41.4132 43.6206 42.4862C44.2628 43.2631 44.0894 44.4472 42.9036 45.4235C41.6158 46.4836 40.4309 46.2932 39.6857 45.5234L40.6307 44.7454C41.0013 45.062 41.5001 45.2887 42.2598 44.6634C42.8434 44.1829 42.975 43.7016 42.6997 43.3686C42.3022 42.8876 41.7436 43.2853 40.928 43.6925Z" fill="#FAFAFA"/>
<path d="M34.4065 47.1788C34.6535 47.7539 35.2728 48.342 36.2954 47.9947C37.4658 47.5972 37.6245 46.4281 37.2523 45.3379C36.88 44.2477 36.0502 43.4143 34.8685 43.8156C33.8459 44.1629 33.7113 44.9943 33.8869 45.6571L32.6938 46.0622C32.3271 44.6913 33.0238 43.3522 34.535 42.839C36.2735 42.2485 37.8249 43.1157 38.4453 44.9327C39.0657 46.7497 38.3674 48.3809 36.6402 48.9675C35.129 49.4807 33.8109 48.8512 33.2134 47.584L34.4065 47.1788Z" fill="#FAFAFA"/>
<path d="M29.2619 43.5847C31.1783 43.7018 32.2594 45.1024 32.1437 47.0069C32.028 48.9114 30.7854 50.1699 28.869 50.0527C26.9526 49.9356 25.8715 48.535 25.9872 46.6305C26.1029 44.726 27.3455 43.4675 29.2619 43.5847ZM29.1993 44.6148C28.0015 44.5415 27.3212 45.4497 27.2448 46.7074C27.1677 47.9771 27.7338 48.9494 28.9316 49.0226C30.1293 49.0959 30.8089 48.1997 30.886 46.93C30.9624 45.6723 30.3971 44.688 29.1993 44.6148Z" fill="#FAFAFA"/>
<path d="M20.1945 47.3901L19.0609 46.8401L21.7436 41.3261L22.8772 41.8761L22.5307 42.5882L22.5523 42.5987C23.0538 42.3085 23.836 42.1545 24.7861 42.6155C25.8117 43.1131 26.3327 44.0994 25.7185 45.362L23.8653 49.1711L22.7209 48.6158L24.4166 45.1304C24.7788 44.3859 24.6967 43.7592 23.9194 43.382C23.0449 42.9577 22.2262 43.2141 21.8272 44.0342L20.1945 47.3901Z" fill="#FAFAFA"/>
<path d="M14.6871 43.0438C13.9262 42.1948 13.8179 41.0851 14.8653 40.1501L18.0253 37.3291L18.8742 38.2763L15.9828 40.8576C15.3651 41.409 15.2035 42.0198 15.7801 42.6632C16.4288 43.3871 17.2839 43.4602 17.9642 42.8528L20.7483 40.3675L21.5892 41.3058L17.0148 45.3894L16.1739 44.4511L16.7647 43.9237L16.7487 43.9058C16.1744 43.9842 15.3918 43.8302 14.6871 43.0438Z" fill="#FAFAFA"/>
<path d="M12.0887 36.3298L12.5634 37.3794L15.5945 36.015C16.2292 35.7293 16.1673 35.3886 15.7872 34.6649L16.7282 34.2413C16.8868 34.4462 17.0334 34.6829 17.1719 34.9891C17.5873 35.9075 17.399 36.5976 16.2172 37.1296L13.0877 38.5383L13.4537 39.3474L12.5126 39.771L12.1466 38.9619L10.3849 39.755L9.86065 38.596L11.6224 37.803L11.1476 36.7534L12.0887 36.3298Z" fill="#FAFAFA"/>
<path d="M8.42604 23.7142L8.6999 22.4843L17.0752 24.3473L16.8014 25.5771L16.1102 25.4234L16.105 25.4468C16.4446 25.8543 16.771 26.5416 16.565 27.4669C16.2233 29.0013 14.7755 29.8717 12.8076 29.434C10.8397 28.9963 9.89788 27.5943 10.2396 26.0599C10.4456 25.1346 11.0094 24.6453 11.5367 24.4307L11.5419 24.4073L8.42604 23.7142ZM15.6045 27.032C15.8288 26.0247 15.1354 25.2189 13.8117 24.9244C12.4764 24.6274 11.5182 25.0658 11.2939 26.0732C11.0539 27.1508 11.9101 27.9436 13.0815 28.2041C14.2528 28.4647 15.3646 28.1096 15.6045 27.032Z" fill="#FAFAFA"/>
<path d="M11.4424 20.1526C11.2761 20.4583 10.8931 20.6601 10.5134 20.4542C10.1336 20.2483 10.1052 19.8233 10.2715 19.5176C10.4492 19.1908 10.8159 18.9938 11.1957 19.1997C11.5754 19.4057 11.6201 19.8258 11.4424 20.1526ZM12.0514 21.1927L12.6534 20.0859L18.0438 23.0091L17.4418 24.1159L12.0514 21.1927Z" fill="#FAFAFA"/>
<path d="M17.3268 17.8759C18.2897 17.2308 19.3092 16.5074 20.3815 17.504C21.2429 18.3047 21.0915 19.5401 20.0765 20.6282C18.7258 22.076 17.4678 22.0699 16.4776 21.2315L17.3126 20.3365C17.8369 20.7419 18.4465 20.9153 19.3305 19.9676C19.9281 19.3271 19.8654 18.7609 19.5842 18.4995C19.0216 17.9767 18.4783 18.4711 17.7062 18.9821C16.8762 19.5377 15.8351 20.3722 14.8155 19.4245C14.0772 18.7382 14.094 17.5415 15.1418 16.4184C16.2796 15.1987 17.4791 15.2323 18.3186 15.898L17.4837 16.793C17.0748 16.5276 16.5507 16.3682 15.8795 17.0877C15.3638 17.6405 15.2965 18.1349 15.6129 18.429C16.0699 18.8538 16.5717 18.3863 17.3268 17.8759Z" fill="#FAFAFA"/>
<path d="M23.2429 13.5934C22.9201 13.0571 22.2268 12.5584 21.2606 13.0409C20.1548 13.5932 20.1561 14.7729 20.6727 15.8026C21.1894 16.8322 22.1246 17.5455 23.2411 16.9879C24.2073 16.5054 24.2279 15.6634 23.9641 15.0306L25.0913 14.4677C25.6405 15.7762 25.1318 17.1972 23.704 17.9103C22.0614 18.7306 20.4066 18.0816 19.5455 16.3656C18.6844 14.6495 19.1552 12.9389 20.787 12.1239C22.2149 11.4108 23.6063 11.856 24.3702 13.0304L23.2429 13.5934Z" fill="#FAFAFA"/>
<path d="M28.8223 16.4354C26.9074 16.5748 25.6485 15.3309 25.5083 13.4281C25.368 11.5253 26.431 10.1123 28.3459 9.97288C30.2609 9.83344 31.5197 11.0773 31.66 12.9801C31.8002 14.883 30.7372 16.2959 28.8223 16.4354ZM28.7464 15.4061C29.9433 15.319 30.4959 14.3282 30.4033 13.0716C30.3098 11.8031 29.6186 10.9149 28.4218 11.0021C27.225 11.0892 26.6714 12.068 26.7649 13.3366C26.8576 14.5932 27.5496 15.4933 28.7464 15.4061Z" fill="#FAFAFA"/>
<path d="M37.349 11.4477L38.5455 11.8424L36.6209 17.6645L35.4243 17.2698L35.6729 16.5178L35.6501 16.5103C35.1917 16.8645 34.4371 17.121 33.4343 16.7902C32.3516 16.433 31.7041 15.5244 32.1448 14.1914L33.4743 10.1695L34.6823 10.568L33.4657 14.2481C33.2059 15.0342 33.3706 15.6446 34.1911 15.9153C35.1142 16.2198 35.8913 15.857 36.1776 14.9911L37.349 11.4477Z" fill="#FAFAFA"/>
<path d="M43.3935 15.008C44.2592 15.7498 44.5122 16.8358 43.5967 17.9003L40.8346 21.1119L39.8688 20.2842L42.3961 17.3455C42.936 16.7178 43.0161 16.091 42.36 15.5288C41.6219 14.8963 40.7647 14.936 40.17 15.6275L37.7366 18.457L36.7799 17.6371L40.7782 12.988L41.735 13.8079L41.2185 14.4083L41.2368 14.424C41.7958 14.2709 42.5917 14.3208 43.3935 15.008Z" fill="#FAFAFA"/>
<path d="M46.8444 21.2669L46.2327 20.2907L43.4127 22.0505C42.8222 22.4189 42.9294 22.7481 43.4034 23.4141L42.5279 23.9604C42.3432 23.7787 42.1661 23.5639 41.9876 23.2792C41.4523 22.4251 41.546 21.7159 42.6455 21.0298L45.5572 19.2129L45.0856 18.4605L45.9611 17.9142L46.4327 18.6666L48.0717 17.6438L48.7472 18.7216L47.1082 19.7444L47.72 20.7205L46.8444 21.2669Z" fill="#FAFAFA"/>
<path d="M32.9167 27.6667C27.6667 28.8333 26.4417 32.4325 25.2283 35.4483L26.3308 35.8333L26.885 34.4917C27.165 34.5908 27.4567 34.6667 27.6667 34.6667C34.0833 34.6667 35.8333 24.75 35.8333 24.75C35.25 25.9167 31.1667 26.0625 28.25 26.6458C25.3333 27.2292 24.1667 29.7083 24.1667 30.875C24.1667 32.0417 25.1875 33.0625 25.1875 33.0625C27.0833 27.6667 32.9167 27.6667 32.9167 27.6667Z" fill="#FAFAFA"/>
</symbol>


</defs>
</svg>



